<mxfile host="app.diagrams.net" modified="2023-07-10T11:13:23.302Z" agent="Mozilla/5.0 (Macintosh; Intel Mac OS X 10_15_7) AppleWebKit/537.36 (KHTML, like Gecko) Chrome/111.0.0.0 Safari/537.36" etag="FQkRdPknGoKASxvBMWaK" version="21.5.2" type="github">
  <diagram name="第 1 页" id="QLiFT8Q2XZKCGqSz-LMj">
    <mxGraphModel dx="954" dy="616" grid="1" gridSize="10" guides="1" tooltips="1" connect="1" arrows="1" fold="1" page="1" pageScale="1" pageWidth="827" pageHeight="1169" math="0" shadow="0">
      <root>
        <mxCell id="0" />
        <mxCell id="1" parent="0" />
        <mxCell id="Ld_9Fa1iYqfoDrgAfVza-5" style="rounded=0;orthogonalLoop=1;jettySize=auto;html=1;entryX=0;entryY=0.5;entryDx=0;entryDy=0;" edge="1" parent="1" source="Ld_9Fa1iYqfoDrgAfVza-1" target="Ld_9Fa1iYqfoDrgAfVza-4">
          <mxGeometry relative="1" as="geometry" />
        </mxCell>
        <mxCell id="Ld_9Fa1iYqfoDrgAfVza-1" value="企微" style="ellipse;whiteSpace=wrap;html=1;aspect=fixed;fillColor=#ffe6cc;strokeColor=#d79b00;" vertex="1" parent="1">
          <mxGeometry x="130" y="280" width="50" height="50" as="geometry" />
        </mxCell>
        <mxCell id="Ld_9Fa1iYqfoDrgAfVza-7" style="rounded=0;orthogonalLoop=1;jettySize=auto;html=1;" edge="1" parent="1" source="Ld_9Fa1iYqfoDrgAfVza-2" target="Ld_9Fa1iYqfoDrgAfVza-4">
          <mxGeometry relative="1" as="geometry" />
        </mxCell>
        <mxCell id="Ld_9Fa1iYqfoDrgAfVza-2" value="app" style="ellipse;whiteSpace=wrap;html=1;aspect=fixed;fillColor=#dae8fc;strokeColor=#6c8ebf;" vertex="1" parent="1">
          <mxGeometry x="284" y="150" width="50" height="50" as="geometry" />
        </mxCell>
        <mxCell id="Ld_9Fa1iYqfoDrgAfVza-8" style="rounded=0;orthogonalLoop=1;jettySize=auto;html=1;entryX=1;entryY=0;entryDx=0;entryDy=0;" edge="1" parent="1" source="Ld_9Fa1iYqfoDrgAfVza-3" target="Ld_9Fa1iYqfoDrgAfVza-4">
          <mxGeometry relative="1" as="geometry" />
        </mxCell>
        <mxCell id="Ld_9Fa1iYqfoDrgAfVza-3" value="小程序" style="ellipse;whiteSpace=wrap;html=1;aspect=fixed;fillColor=#d5e8d4;strokeColor=#82b366;" vertex="1" parent="1">
          <mxGeometry x="500" y="150" width="50" height="50" as="geometry" />
        </mxCell>
        <mxCell id="Ld_9Fa1iYqfoDrgAfVza-16" style="edgeStyle=orthogonalEdgeStyle;rounded=0;orthogonalLoop=1;jettySize=auto;html=1;" edge="1" parent="1" source="Ld_9Fa1iYqfoDrgAfVza-4" target="Ld_9Fa1iYqfoDrgAfVza-17">
          <mxGeometry relative="1" as="geometry">
            <mxPoint x="650" y="390" as="targetPoint" />
          </mxGeometry>
        </mxCell>
        <mxCell id="Ld_9Fa1iYqfoDrgAfVza-4" value="" style="ellipse;whiteSpace=wrap;html=1;aspect=fixed;" vertex="1" parent="1">
          <mxGeometry x="334" y="320" width="140" height="140" as="geometry" />
        </mxCell>
        <mxCell id="Ld_9Fa1iYqfoDrgAfVza-12" value="员工营销" style="ellipse;whiteSpace=wrap;html=1;aspect=fixed;fillColor=#ffe6cc;strokeColor=#d79b00;" vertex="1" parent="1">
          <mxGeometry x="350" y="380" width="50" height="50" as="geometry" />
        </mxCell>
        <mxCell id="Ld_9Fa1iYqfoDrgAfVza-13" value="用户行为" style="text;html=1;strokeColor=none;fillColor=none;align=center;verticalAlign=middle;whiteSpace=wrap;rounded=0;" vertex="1" parent="1">
          <mxGeometry x="379" y="460" width="60" height="30" as="geometry" />
        </mxCell>
        <mxCell id="Ld_9Fa1iYqfoDrgAfVza-14" value="..." style="ellipse;whiteSpace=wrap;html=1;aspect=fixed;fillColor=#dae8fc;strokeColor=#6c8ebf;" vertex="1" parent="1">
          <mxGeometry x="379" y="330" width="50" height="50" as="geometry" />
        </mxCell>
        <mxCell id="Ld_9Fa1iYqfoDrgAfVza-15" value="..." style="ellipse;whiteSpace=wrap;html=1;aspect=fixed;fillColor=#d5e8d4;strokeColor=#82b366;" vertex="1" parent="1">
          <mxGeometry x="410" y="380" width="50" height="50" as="geometry" />
        </mxCell>
        <mxCell id="Ld_9Fa1iYqfoDrgAfVza-17" value="用户行为&lt;br&gt;统一" style="ellipse;whiteSpace=wrap;html=1;aspect=fixed;" vertex="1" parent="1">
          <mxGeometry x="650" y="350" width="80" height="80" as="geometry" />
        </mxCell>
      </root>
    </mxGraphModel>
  </diagram>
</mxfile>
